<svg width="40" height="40" viewBox="0 0 40 40" fill="none" xmlns="http://www.w3.org/2000/svg">
<path d="M18.3334 31.6666H21.6667V29.9999H23.3334C23.8056 29.9999 24.2014 29.8402 24.5209 29.5208C24.8403 29.2013 25 28.8055 25 28.3333V23.3333C25 22.861 24.8403 22.4652 24.5209 22.1458C24.2014 21.8263 23.8056 21.6666 23.3334 21.6666H18.3334V19.9999H25V16.6666H21.6667V14.9999H18.3334V16.6666H16.6667C16.1945 16.6666 15.7986 16.8263 15.4792 17.1458C15.1597 17.4652 15 17.861 15 18.3333V23.3333C15 23.8055 15.1597 24.2013 15.4792 24.5208C15.7986 24.8402 16.1945 24.9999 16.6667 24.9999H21.6667V26.6666H15V29.9999H18.3334V31.6666ZM10 36.6666C9.08335 36.6666 8.29863 36.3402 7.64585 35.6874C6.99308 35.0346 6.66669 34.2499 6.66669 33.3333V6.66658C6.66669 5.74992 6.99308 4.9652 7.64585 4.31242C8.29863 3.65964 9.08335 3.33325 10 3.33325H23.3334L33.3334 13.3333V33.3333C33.3334 34.2499 33.007 35.0346 32.3542 35.6874C31.7014 36.3402 30.9167 36.6666 30 36.6666H10ZM21.6667 13.3333V6.66658H10V33.3333H30V13.3333H21.6667Z" fill="#0082F8"/>
</svg>
