<svg width="40" height="40" viewBox="0 0 40 40" fill="none" xmlns="http://www.w3.org/2000/svg">
<path d="M6.45829 30.2083C5.48607 29.236 4.99996 28.0555 4.99996 26.6666H1.66663V11.6666C1.66663 10.7499 1.99301 9.9652 2.64579 9.31242C3.29857 8.65964 4.08329 8.33325 4.99996 8.33325H28.3333L38.3333 18.3333V26.6666H35C35 28.0555 34.5138 29.236 33.5416 30.2083C32.5694 31.1805 31.3888 31.6666 30 31.6666C28.6111 31.6666 27.4305 31.1805 26.4583 30.2083C25.4861 29.236 25 28.0555 25 26.6666H15C15 28.0555 14.5138 29.236 13.5416 30.2083C12.5694 31.1805 11.3888 31.6666 9.99996 31.6666C8.61107 31.6666 7.43052 31.1805 6.45829 30.2083ZM25 16.6666H31.6666L26.6666 11.6666H25V16.6666ZM15 16.6666H21.6666V11.6666H15V16.6666ZM4.99996 16.6666H11.6666V11.6666H4.99996V16.6666ZM11.4791 28.1458C11.8819 27.743 12.0833 27.2499 12.0833 26.6666C12.0833 26.0833 11.8819 25.5902 11.4791 25.1874C11.0763 24.7846 10.5833 24.5833 9.99996 24.5833C9.41663 24.5833 8.92357 24.7846 8.52079 25.1874C8.11801 25.5902 7.91663 26.0833 7.91663 26.6666C7.91663 27.2499 8.11801 27.743 8.52079 28.1458C8.92357 28.5485 9.41663 28.7499 9.99996 28.7499C10.5833 28.7499 11.0763 28.5485 11.4791 28.1458ZM31.4791 28.1458C31.8819 27.743 32.0833 27.2499 32.0833 26.6666C32.0833 26.0833 31.8819 25.5902 31.4791 25.1874C31.0763 24.7846 30.5833 24.5833 30 24.5833C29.4166 24.5833 28.9236 24.7846 28.5208 25.1874C28.118 25.5902 27.9166 26.0833 27.9166 26.6666C27.9166 27.2499 28.118 27.743 28.5208 28.1458C28.9236 28.5485 29.4166 28.7499 30 28.7499C30.5833 28.7499 31.0763 28.5485 31.4791 28.1458ZM4.99996 23.3333H6.33329C6.80551 22.8333 7.34718 22.4305 7.95829 22.1249C8.5694 21.8194 9.24996 21.6666 9.99996 21.6666C10.75 21.6666 11.4305 21.8194 12.0416 22.1249C12.6527 22.4305 13.1944 22.8333 13.6666 23.3333H26.3333C26.8055 22.8333 27.3472 22.4305 27.9583 22.1249C28.5694 21.8194 29.25 21.6666 30 21.6666C30.75 21.6666 31.4305 21.8194 32.0416 22.1249C32.6527 22.4305 33.1944 22.8333 33.6666 23.3333H35V19.9999H4.99996V23.3333Z" fill="#0082F8"/>
</svg>
